<svg width="538" height="476" viewBox="0 0 538 476" fill="none" xmlns="http://www.w3.org/2000/svg">
<path d="M44.166 242.715C44.166 242.715 66.191 155.565 146.812 153.067L88.0745 250.377L44.166 242.715Z" fill="#2A2A2A"/>
<path d="M493.356 242.715C493.356 242.715 471.331 155.565 390.697 153.067L449.435 250.377L493.356 242.715Z" fill="#2A2A2A"/>
<path d="M473.329 297.274C473.329 204.561 395.835 117.926 295.481 104.65C278.811 102.77 256.078 103.273 256.078 103.273C149.003 109.943 64.1855 200.222 64.1855 297.262C64.1855 376.866 121.263 444.533 200.854 469.527C201.588 469.669 272.143 483.421 336.415 469.592C416.161 444.662 473.329 376.943 473.329 297.274Z" fill="#FFD04F"/>
<path d="M164.744 363.397C186.705 363.397 204.507 353.336 204.507 340.927C204.507 328.517 186.705 318.457 164.744 318.457C142.783 318.457 124.98 328.517 124.98 340.927C124.98 353.336 142.783 363.397 164.744 363.397Z" fill="#F39B9F"/>
<path d="M372.779 363.397C394.74 363.397 412.543 353.336 412.543 340.927C412.543 328.517 394.74 318.457 372.779 318.457C350.818 318.457 333.016 328.517 333.016 340.927C333.016 353.336 350.818 363.397 372.779 363.397Z" fill="#F39B9F"/>
<path d="M168.902 190.745C168.902 190.745 184.349 177.868 200.556 186.405" stroke="#231815" stroke-width="3" stroke-linecap="round" stroke-linejoin="round"/>
<path d="M190.849 336.201C211.474 336.201 228.193 310.298 228.193 278.345C228.193 246.393 211.474 220.49 190.849 220.49C170.225 220.49 153.506 246.393 153.506 278.345C153.506 310.298 170.225 336.201 190.849 336.201Z" fill="white"/>
<path d="M203.208 280.226C201.513 280.239 199.836 279.88 198.295 279.174C196.754 278.468 195.386 277.432 194.289 276.14C193.191 274.848 192.391 273.33 191.944 271.695C191.496 270.059 191.413 268.345 191.7 266.674C191.987 265.003 192.637 263.415 193.605 262.023C194.572 260.631 195.833 259.468 197.299 258.616C198.764 257.764 200.399 257.245 202.087 257.094C203.776 256.943 205.477 257.164 207.07 257.743C201.921 245.201 193.116 236.921 183.101 236.921C167.216 236.921 154.344 257.73 154.344 283.406C154.344 309.082 167.216 329.891 183.101 329.891C198.986 329.891 211.859 309.07 211.859 283.406C211.859 281.101 211.743 278.835 211.55 276.62C210.474 277.752 209.18 278.655 207.747 279.275C206.314 279.895 204.77 280.218 203.208 280.226Z" fill="#2A2A2A"/>
<path d="M346.673 336.201C367.298 336.201 384.017 310.298 384.017 278.345C384.017 246.393 367.298 220.49 346.673 220.49C326.049 220.49 309.33 246.393 309.33 278.345C309.33 310.298 326.049 336.201 346.673 336.201Z" fill="white"/>
<path d="M354.382 236.934C344.368 236.934 335.55 245.213 330.401 257.755C332.365 257.046 334.484 256.88 336.534 257.276C338.585 257.672 340.49 258.615 342.048 260.006C343.607 261.396 344.761 263.182 345.388 265.174C346.015 267.167 346.092 269.292 345.611 271.324C345.13 273.357 344.109 275.222 342.655 276.722C341.202 278.221 339.37 279.3 337.354 279.844C335.338 280.388 333.212 280.377 331.202 279.812C329.192 279.246 327.371 278.148 325.934 276.633C325.728 278.848 325.625 281.114 325.625 283.419C325.625 309.082 338.498 329.904 354.382 329.904C370.267 329.904 383.14 309.082 383.14 283.419C383.14 257.755 370.267 236.934 354.382 236.934Z" fill="#2A2A2A"/>
<path d="M368.621 190.745C368.621 190.745 353.173 177.868 336.967 186.405" stroke="#231815" stroke-width="3" stroke-linecap="round" stroke-linejoin="round"/>
<path d="M268.756 363.281C285.747 362.817 295.286 358.98 300.628 354.499C303.343 352.18 305.299 349.099 306.242 345.655C307.186 342.211 307.073 338.563 305.919 335.184C296.316 305.941 268.756 307.009 268.756 307.009C268.756 307.009 241.208 305.941 231.605 335.184C230.451 338.563 230.338 342.211 231.282 345.655C232.225 349.099 234.181 352.18 236.896 354.499C242.238 358.98 251.777 362.817 268.756 363.281Z" fill="#FA8B32"/>
<path d="M269.488 351.64C261.025 351.587 252.756 349.092 245.674 344.455C245.265 344.148 244.994 343.691 244.919 343.185C244.845 342.679 244.972 342.164 245.275 341.751C245.425 341.546 245.614 341.372 245.832 341.241C246.05 341.11 246.292 341.023 246.543 340.986C246.795 340.948 247.051 340.962 247.297 341.025C247.544 341.087 247.775 341.199 247.978 341.352C254.279 345.59 261.702 347.847 269.294 347.833C276.887 347.819 284.301 345.535 290.587 341.275C290.8 341.137 291.038 341.042 291.287 340.997C291.537 340.951 291.793 340.955 292.041 341.008C292.289 341.061 292.524 341.163 292.733 341.307C292.941 341.451 293.12 341.635 293.258 341.848C293.395 342.061 293.49 342.299 293.536 342.548C293.581 342.798 293.578 343.054 293.524 343.302C293.471 343.55 293.37 343.786 293.226 343.995C293.082 344.203 292.898 344.382 292.685 344.52C285.814 349.109 277.75 351.585 269.488 351.64Z" fill="#CE5300"/>
<path d="M260.418 81.3816C262.927 106.541 264.677 111.75 256.893 113.78C247.1 107.393 236.029 98.4509 230.521 82.3073C224.179 57.9901 229.642 49.4839 238.582 46.0776C246.686 43.5 257.953 56.6689 260.418 81.3816Z" fill="#FFD04F"/>
<path d="M321.188 76.3091C308.186 95 282.015 123.573 266.395 118.427C252.635 109.096 259.447 60.5544 271.796 39.6903C290.53 10.7358 311.821 10.1196 320.337 14.5681C336.518 23.0205 337.795 49.058 321.188 76.3091Z" fill="#FFD04F"/>
<path d="M88.0752 235.466C88.0752 228.255 82.2341 222.409 75.0288 222.409C67.8235 222.409 61.9824 228.255 61.9824 235.466V365.663C61.9824 372.874 67.8235 378.72 75.0288 378.72C82.2341 378.72 88.0752 372.874 88.0752 365.663V235.466Z" fill="#E1DDDC"/>
<path d="M62.1855 234.441C27.4912 236.532 0 265.34 0 300.571C0 335.802 27.4912 364.61 62.1855 366.701V234.441Z" fill="#2A2A2A"/>
<path d="M471.184 366.822C471.219 366.822 471.255 366.822 471.29 366.822C507.868 366.822 537.52 337.16 537.52 300.571C537.52 263.981 507.868 234.32 471.29 234.32C471.255 234.32 471.219 234.32 471.184 234.32V366.822Z" fill="#2A2A2A"/>
<path d="M449.446 365.663C449.446 372.874 455.287 378.72 462.493 378.72C469.698 378.72 475.539 372.874 475.539 365.663V235.466C475.539 228.255 469.698 222.409 462.493 222.409C455.287 222.409 449.446 228.255 449.446 235.466V365.663Z" fill="#E1DDDC"/>
</svg>
