<svg width="288" height="230" viewBox="0 0 288 230" fill="none" xmlns="http://www.w3.org/2000/svg">
<path d="M89.7459 2.47167C82.3828 1.41577 78.0319 0.591655 78.1606 0.617409C78.1606 0.617409 12.2142 53.6698 0.924924 127.415C0.762104 128.439 0.818385 129.486 1.09003 130.487C1.36168 131.487 1.84252 132.419 2.50077 133.219C3.15901 134.02 3.97968 134.672 4.90853 135.132C5.83737 135.592 6.85325 135.85 7.88901 135.888C19.7318 136.313 42.8124 133.442 63.0739 109.04C95.2039 69.1735 89.7588 2.53605 89.7459 2.47167Z" fill="#FFD04F"/>
<path d="M225.527 109.027C245.776 133.493 268.869 136.3 280.699 135.875C281.735 135.837 282.751 135.58 283.68 135.119C284.608 134.659 285.429 134.007 286.087 133.207C286.746 132.406 287.226 131.474 287.498 130.474C287.77 129.473 287.826 128.426 287.663 127.402C276.425 53.6569 210.428 0.604492 210.428 0.604492C210.505 0.604492 206.141 1.40286 198.778 2.45875C198.829 2.53601 193.384 69.1734 225.527 109.027Z" fill="#FFD04F"/>
<path d="M119.854 173.089H107.162V207.303H119.854V173.089Z" fill="#FA8B32"/>
<path d="M116.906 199.731C119.932 203.105 119.069 208.874 114.976 212.544L99.6315 226.798C95.538 230.468 89.7196 230.661 86.6945 227.352C83.6566 223.978 84.5319 218.209 88.6254 214.475L103.957 200.233C108.076 196.602 113.881 196.358 116.906 199.731Z" fill="#FA8B32"/>
<path d="M110.251 199.731C107.226 203.105 108.089 208.874 112.182 212.544L127.526 226.798C131.62 230.468 137.438 230.661 140.463 227.352C143.501 223.978 142.626 218.209 138.533 214.475L123.201 200.233C119.108 196.602 113.225 196.358 110.251 199.731Z" fill="#FA8B32"/>
<path d="M171.667 207.303H184.359V173.089H171.667V207.303Z" fill="#FA8B32"/>
<path d="M174.615 199.731C171.59 203.105 172.452 208.874 176.546 212.544L191.89 226.798C195.983 230.468 201.802 230.661 204.827 227.352C207.865 223.978 206.989 218.209 202.896 214.475L187.565 200.233C183.471 196.602 177.588 196.358 174.615 199.731Z" fill="#FA8B32"/>
<path d="M181.27 199.731C184.295 203.105 183.432 208.874 179.339 212.544L163.995 226.798C159.901 230.468 154.083 230.661 151.058 227.352C148.02 223.978 148.895 218.209 152.989 214.475L168.32 200.233C172.439 196.602 178.245 196.358 181.27 199.731Z" fill="#FA8B32"/>
<path d="M201.904 2.79358C203.771 7.30048 225.41 60.6877 228.473 109.027C228.863 111.697 229.066 114.39 229.078 117.088C229.078 155.268 191.696 186.224 145.728 186.224C99.7603 186.224 62.4297 155.268 62.4297 117.088C62.4384 114.391 62.6362 111.697 63.0219 109.027L63.0608 108.872C63.1609 107.36 63.2731 105.824 63.4093 104.301C63.5509 102.718 63.7053 101.121 63.8727 99.537C64.4005 94.7597 65.0698 89.9567 65.8679 85.2051C66.1383 83.6213 66.4214 82.0245 66.7046 80.4536C66.9647 79.0107 67.2466 77.5787 67.5303 76.1377L67.6057 75.7535C67.9147 74.1826 68.2365 72.6373 68.5712 71.0921C68.9059 69.5469 69.2406 68.0146 69.5881 66.4822C70.116 64.2031 70.6565 61.9367 71.2101 59.709C71.7678 57.4857 72.33 55.2923 72.8964 53.129C75.9729 41.63 79.2812 31.2256 82.1389 22.8943C86.2472 10.9099 89.4506 3.20514 89.7273 2.54376L89.7454 2.47168C110.818 5.48486 156.786 10.2364 201.904 2.79358Z" fill="#FFD04F"/>
<path d="M145.754 45.5961C173.366 45.5961 188.671 79.8484 188.671 100.838C188.671 121.827 164.818 135.811 145.754 135.811C126.69 135.811 102.85 121.814 102.85 100.838C102.85 79.8613 118.155 45.5961 145.754 45.5961Z" fill="#FFDE85"/>
</svg>
